<?xml version="1.0" encoding="UTF-8"?>
<!DOCTYPE svg PUBLIC "-//W3C//DTD SVG 1.1//EN" "http://www.w3.org/Graphics/SVG/1.1/DTD/svg11.dtd">
<!-- Creator: CorelDRAW -->
<svg xmlns="http://www.w3.org/2000/svg" xml:space="preserve" width="210mm" height="297mm" style="shape-rendering:geometricPrecision; text-rendering:geometricPrecision; image-rendering:optimizeQuality; fill-rule:evenodd; clip-rule:evenodd"
viewBox="0 0 210 297"
 xmlns:xlink="http://www.w3.org/1999/xlink">
 <defs>
  <style type="text/css">
   <![CDATA[
    .str0 {stroke:white;stroke-width:0.0762}
    .fil3 {fill:black}
    .fil1 {fill:blue}
    .fil4 {fill:#009933}
    .fil11 {fill:#2F2E41}
    .fil5 {fill:#339966}
    .fil7 {fill:#3F3D56}
    .fil9 {fill:#9F616A}
    .fil10 {fill:#CBCBCB}
    .fil0 {fill:#E6E6E6}
    .fil6 {fill:#F1F1F1}
    .fil8 {fill:red}
    .fil2 {fill:white}
   ]]>
  </style>
 </defs>
 <g id="Layer_x0020_1">
  <metadata id="CorelCorpID_0Corel-Layer"/>
  <rect class="fil0" x="29.3107" y="90.4145" width="125.498" height="57.6357"/>
  <rect class="fil1" x="29.3107" y="85.0852" width="125.445" height="5.32928"/>
  <circle class="fil2 str0" cx="33.2608" cy="87.7668" r="0.990362"/>
  <circle class="fil2 str0" cx="40.8088" cy="87.7668" r="0.990362"/>
  <circle class="fil2 str0" cx="37.0437" cy="87.7668" r="0.990362"/>
  <rect class="fil2" x="32.9513" y="93.6288" width="118.271" height="49.6643"/>
  <rect class="fil0" x="44.3157" y="111.584" width="29.3311" height="1.07693" rx="0.8685" ry="0.8685"/>
  <rect class="fil0" x="44.3157" y="123.236" width="29.3311" height="1.07693" rx="0.8685" ry="0.8685"/>
  <rect class="fil0" x="44.3157" y="119.323" width="29.3311" height="1.07693" rx="0.8685" ry="0.8685"/>
  <rect class="fil0" x="44.3157" y="115.431" width="29.3311" height="1.07693" rx="0.8685" ry="0.8685"/>
  <rect class="fil0" x="44.3157" y="130.98" width="29.3311" height="1.07693" rx="0.8685" ry="0.8685"/>
  <rect class="fil0" x="44.3157" y="127.093" width="29.3311" height="1.07693" rx="0.8685" ry="0.8685"/>
  <rect class="fil3" x="51.8514" y="104.973" width="14.2596" height="0.935392" rx="0.7544" ry="0.7544"/>
  <g id="_91709904">
   <path id="_359767024" class="fil4" d="M109.508 169.854l0 -10.78c0,0 4.201,7.6426 0,10.78z"/>
   <path id="_359766640" class="fil5" d="M109.767 169.852l-7.9411 -7.2901c0,0 8.4709,2.0736 7.9411,7.2901z"/>
   <path id="_359766904" class="fil6" d="M138.349 132.196l-42.9325 0c-0.5975,-0.0006 -1.0819,-0.485 -1.0824,-1.0824l0 -25.2543c0.0005,-0.5975 0.4849,-1.0819 1.0823,-1.0824l42.9326 0c0.5973,0.0005 1.0817,0.4849 1.0822,1.0823l0 25.2544c-0.0005,0.5974 -0.4849,1.0818 -1.0823,1.0823l0.0001 0.0001z"/>
   <path id="_359766688" class="fil2" d="M143.996 137.972l-42.9325 0c-0.5974,-0.0006 -1.0818,-0.485 -1.0824,-1.0824l0.0001 -25.2544c0.0005,-0.5974 0.4849,-1.0818 1.0823,-1.0823l42.9325 0c0.5974,0.0005 1.0818,0.4849 1.0823,1.0823l0.0001 25.2544c-0.0006,0.5974 -0.485,1.0818 -1.0824,1.0823l0 0.0001z"/>
   <path id="_359766544" class="fil7" d="M143.996 138.34l-42.9325 0c-0.8006,-0.0008 -1.4499,-0.65 -1.4506,-1.4508l0 -25.2542c0.0007,-0.8007 0.65,-1.45 1.4507,-1.4507l42.9324 0c0.8007,0.0007 1.4499,0.65 1.4507,1.4508l0 25.2542c-0.0008,0.8007 -0.65,1.4499 -1.4508,1.4507l0.0001 0zm-42.9325 -27.419c-0.3942,0.0003 -0.7137,0.3199 -0.7141,0.714l0.0001 25.2543c0.0003,0.3941 0.3198,0.7136 0.714,0.7141l42.9325 0c0.3942,-0.0005 0.7136,-0.3199 0.714,-0.7141l0.0001 -25.2543c-0.0005,-0.3942 -0.3199,-0.7136 -0.7141,-0.714l-42.9325 0z"/>
   <circle id="_359766736" class="fil8" cx="122.472" cy="127.619" r="3.72546"/>
   <path id="_359766856" class="fil1" d="M129.659 124.035c-0.4528,-0.4804 -1.0851,-0.7533 -1.7456,-0.7533 -0.6308,0 -1.2368,0.249 -1.6855,0.6921l-12.0823 12.0824c-1.5477,1.555 -3.1634,-0.8233 -4.1958,-1.7823 -2.4827,-2.4554 -5.1643,2.1486 -6.8331,3.4671l38.8267 -0.0001 0 -0.4943 -12.2844 -13.2116z"/>
   <path id="_359766448" class="fil9" d="M81.7992 138.681l-0.6533 -9.0534 1.1733 -8.4838 -3.3324 -0.225 -0.6577 9.3715 1.859 8.8129c-0.1616,0.2234 -0.2488,0.4926 -0.2488,0.7683 0,0.7239 0.5871,1.311 1.311,1.311 0.7239,0 1.311,-0.5871 1.311,-1.311 0,-0.5115 -0.2977,-0.9766 -0.7622,-1.1906l0.0001 0.0001z"/>
   <path id="_359766424" class="fil10" d="M78.5617 122.138l0.7824 -3.3866c0.2731,-1.1825 1.3268,-2.0204 2.5405,-2.0204 1.4399,0 2.6075,1.1676 2.6075,2.6074 0,0.0974 -0.0054,0.1952 -0.0163,0.2919l-0.4309 3.8267 -5.4832 -1.319z"/>
   <polygon id="_359767168" class="fil9" points="84.7309,168.177 86.3018,168.177 87.0492,162.118 84.7306,162.118 "/>
   <path id="_359767288" class="fil11" d="M84.3301 167.664l3.0939 -0.0001 0.0001 0c1.0887,-0.0001 1.9717,0.8826 1.9717,1.9715l0 0.064 -5.0656 0.0002 -0.0001 -2.0356z"/>
   <polygon id="_359767120" class="fil9" points="92.5575,168.126 94.0678,167.693 93.1178,161.662 90.8888,162.301 "/>
   <path id="_360312064" class="fil11" d="M92.031 167.743l2.9742 -0.852 0.0002 0c0.1761,-0.0505 0.3593,-0.0763 0.5427,-0.0763 0.8796,0 1.6533,0.5833 1.8955,1.4287l0.0176 0.0617 -4.8697 1.3949 -0.5605 -1.957z"/>
   <path id="_360312160" class="fil11" d="M83.8818 165.978l0.7307 -18.3558 -1.8978 -8.3069c-2.554,-4.282 0.2013,-11.1123 0.2294,-11.1808l0.0103 -0.025 0.0268 -0.0036 6.6807 -0.9052 0.0939 0.2154c1.7672,4.0404 2.6812,8.411 2.6812,12.8208 0,2.0739 -0.2031,4.148 -0.6015,6.1829l-0.6953 3.5564 3.4365 13.8751 -3.2524 1.6263 -2.4954 -6.4711 -1.688 6.6192 -3.2591 0.3523z"/>
   <path id="_360311704" class="fil10" d="M82.0642 129.837l-2.1795 -6.3862c-1.355,-2.386 -0.4956,-4.5044 0.464,-5.8613 1.0363,-1.4652 1.0985,-2.287 1.1123,-2.296l0.0111 -0.0074 2.8635 -0.0867 2.6502 2.6929c0.1667,-0.0651 1.5748,3.405 1.4555,3.5795l1.8509 5.9834 -8.228 2.3818z"/>
   <path id="_360312040" class="fil9" d="M99.7119 130.941l-7.1797 -5.5537 -5.5367 -6.5343 -2.3909 2.3322 6.5419 6.7425 7.805 4.495c0.1309,0.6027 0.6644,1.0324 1.281,1.0324 0.7239,0 1.311,-0.5871 1.311,-1.311 0,-0.7239 -0.5871,-1.311 -1.311,-1.311 -0.1789,0 -0.3564,0.0368 -0.5206,0.1079z"/>
   <path id="_360312088" class="fil10" d="M83.9251 123.548l-2.0005 -2.8423c-0.3087,-0.4392 -0.4752,-0.9638 -0.4752,-1.5008 0,-1.4398 1.1676,-2.6074 2.6074,-2.6074 0.7433,0 1.4512,0.3174 1.9459,0.8719l2.563 2.8741 -4.6406 3.2045z"/>
   <circle id="_360311944" class="fil9" cx="82.567" cy="111.016" r="3.40043"/>
   <path id="_360311896" class="fil11" d="M86.0246 109.291l-5.3995 0 0 -2.3537c1.1851,-0.4708 2.3449,-0.8712 3.0459,0 1.2997,0 2.3536,1.054 2.3536,2.3537z"/>
   <path id="_91710288" class="fil11" d="M81.3694 106.373c-4.9472,-0.1351 -4.0104,8.0151 -4.0104,8.0151 0,0 0.9334,0.1234 1.3593,0.1959l0.5143 -0.2897 0.5534 0.363c0.2542,0.0013 0.5211,-0.0036 0.7979,-0.0087l0.2537 -0.5224 0.5658 0.513c1.0298,0.0015 3.8247,0.0299 3.8247,0.0299 0,0 1.6843,-8.1447 -3.8587,-8.2961z"/>
   <path id="_357841544" class="fil10" d="M121.431 169.792l-56.7759 0c-0.0822,-0.0001 -0.1489,-0.0668 -0.1489,-0.1491 0,-0.0823 0.0667,-0.1491 0.149,-0.1491l56.7758 0.0001c0.0822,-0.0001 0.1489,0.0667 0.1489,0.149 0,0.0823 -0.0667,0.149 -0.149,0.149l0.0001 0.0001z"/>
  </g>
 </g>
</svg>
