<?xml version="1.0" encoding="UTF-8"?>
<!DOCTYPE svg PUBLIC "-//W3C//DTD SVG 1.1//EN" "http://www.w3.org/Graphics/SVG/1.1/DTD/svg11.dtd">
<!-- Creator: CorelDRAW -->
<svg xmlns="http://www.w3.org/2000/svg" xml:space="preserve" width="120.38mm" height="96.48mm" style="shape-rendering:geometricPrecision; text-rendering:geometricPrecision; image-rendering:optimizeQuality; fill-rule:evenodd; clip-rule:evenodd"
viewBox="0 0 120.38 96.48"
 xmlns:xlink="http://www.w3.org/1999/xlink">
 <defs>
  <style type="text/css">
   <![CDATA[
    .fil5 {fill:blue}
    .fil7 {fill:#090814}
    .fil2 {fill:#2F2E41}
    .fil0 {fill:#2F2E43}
    .fil1 {fill:#B6B3C5}
    .fil4 {fill:#D1D1D2}
    .fil6 {fill:#ED9DA0}
    .fil3 {fill:white}
   ]]>
  </style>
 </defs>
 <g id="Layer_x0020_1">
  <metadata id="CorelCorpID_0Corel-Layer"/>
  <g id="_359994176">
   <path id="_360293664" class="fil0" d="M3.7957 96.2522c0,0.1301 0.1045,0.2346 0.2346,0.2346l116.918 -0.0001c0.1301,0 0.2346,-0.1044 0.2346,-0.2346 0,-0.1301 -0.1044,-0.2345 -0.2346,-0.2345l-116.918 0c-0.13,0 -0.2345,0.1045 -0.2345,0.2346l0 0z"/>
   <path id="_360002864" class="fil1" d="M64.4242 73.1083c-0.321,1.9459 -2.0144,3.4351 -4.0498,3.4351 -2.0354,0 -3.7287,-1.4892 -4.0498,-3.4351l-10.361 0 0 22.454 28.8216 0.0001 0 -22.4541 -10.361 0z"/>
   <rect id="_360360528" class="fil1" x="46.4663" y="95.4787" width="2.84864" height="0.502705"/>
   <rect id="_360360792" class="fil1" x="71.6852" y="95.5624" width="2.84864" height="0.502705"/>
   <rect id="_360356424" class="fil2" x="46.0474" y="93.7834" width="28.8217" height="0.781654"/>
   <path id="_360360816" class="fil2" d="M118.338 73.6948l-115.927 0c-0.886,0 -1.6068,-0.7208 -1.6068,-1.6068l0 -66.1594c0,-0.8859 0.7208,-1.6068 1.6068,-1.6068l115.927 0c0.886,0 1.6068,0.7208 1.6068,1.6068l0 66.1594c0,0.886 -0.7208,1.6068 -1.6068,1.6068l0 0z"/>
   <rect id="_360361728" class="fil3" x="3.73661" y="7.17052" width="113.443" height="64.0108"/>
   <path id="_360362136" class="fil4" d="M103.702 31.7532l-6.19 0c-0.5379,0 -0.9755,-0.4375 -0.9755,-0.9754 0,-0.538 0.4376,-0.9755 0.9755,-0.9755l6.19 -0.0001c0.5379,0 0.9755,0.4375 0.9755,0.9755 0,0.5379 -0.4376,0.9755 -0.9755,0.9755l0 0z"/>
   <path id="_357840040" class="fil4" d="M110.821 31.7532l-2.8886 0c-0.5379,0 -0.9755,-0.4375 -0.9755,-0.9754 0,-0.538 0.4376,-0.9755 0.9755,-0.9755l2.8886 -0.0001c0.5379,0 0.9755,0.4375 0.9755,0.9755 0,0.5379 -0.4376,0.9755 -0.9755,0.9755l0 0z"/>
   <path id="_595861088" class="fil5" d="M41.7265 32.4982l-18.8413 0c-0.9618,0 -1.7443,-0.7825 -1.7443,-1.7443 0,-0.9617 0.7825,-1.7443 1.7443,-1.7443l18.8413 -0.0001c0.9619,0 1.7443,0.7826 1.7443,1.7443 0,0.9618 -0.7824,1.7444 -1.7443,1.7444l0 0z"/>
   <path id="_595861112" class="fil4" d="M31.5113 37.1517l-9.0801 0c-0.5863,0 -1.0633,-0.477 -1.0633,-1.0632 0,-0.5863 0.477,-1.0633 1.0633,-1.0633l9.0801 0c0.5863,0 1.0633,0.477 1.0633,1.0633 0,0.5862 -0.477,1.0632 -1.0633,1.0632z"/>
   <path id="_595861544" class="fil4" d="M81.5656 41.3514l-59.3614 0c-0.5863,0 -1.0633,-0.477 -1.0633,-1.0634 0,-0.5863 0.477,-1.0633 1.0633,-1.0633l59.3614 0c0.5863,0 1.0633,0.4771 1.0633,1.0634 0,0.5864 -0.477,1.0634 -1.0633,1.0634l0 -0.0001z"/>
   <path id="_595861400" class="fil4" d="M76.4581 44.1889l-54.2539 0c-0.5863,0 -1.0633,-0.4771 -1.0633,-1.0634 0,-0.5862 0.477,-1.0632 1.0633,-1.0632l54.2539 0c0.5862,0 1.0633,0.477 1.0633,1.0632 0,0.5863 -0.4771,1.0634 -1.0633,1.0634z"/>
   <polygon id="_595861448" class="fil6" points="110.643,85.1482 107.92,88.0074 105.018,85.3246 107.741,82.4654 "/>
   <path id="_595862624" class="fil7" d="M112.818 88.0766l-5.7882 6.0777c-0.4947,0.5195 -1.1125,0.9299 -1.7869,1.1869l-1.6137 0.6151c-0.3336,0.1272 -0.7178,0.0535 -0.9787,-0.1877 -0.306,-0.2828 -0.3834,-0.736 -0.1883,-1.1019l1.5522 -2.9117 1.6563 -5.9048 0.018 0.0111c0.4506,0.2774 1.1341,0.6938 1.1828,0.7115 0.8577,0.0304 1.4718,-0.1854 1.8252,-0.6411 0.6165,-0.7948 0.2254,-2.0636 0.2214,-2.0763l-0.0031 -0.0098 0.0078 -0.0067c0.1798,-0.1534 0.369,-0.2148 0.5627,-0.1825 0.4111,0.0687 0.7051,0.5304 0.7481,0.6015 0.3858,-0.0162 1.5701,0.9113 1.6654,0.9865 0.5814,-0.0016 1.0077,0.1363 1.2668,0.4098 0.2266,0.2392 0.3253,0.5786 0.2933,1.0089 -0.0384,0.5178 -0.2661,1.0197 -0.6412,1.4135l0.0001 0z"/>
   <rect id="_595862816" class="fil6" x="103.52" y="88.4401" width="3.97955" height="3.92078"/>
   <path id="_595862144" class="fil7" d="M106.821 95.9274l-8.4591 0c-0.723,0 -1.4495,-0.1632 -2.1011,-0.4718l-1.5595 -0.7385c-0.3224,-0.1527 -0.5308,-0.4791 -0.5308,-0.8316 0,-0.4134 0.2824,-0.7791 0.6868,-0.8893l3.2173 -0.8771 5.5039 -2.8502 0.0041 0.0205c0.1029,0.5136 0.2624,1.2895 0.2827,1.3366 0.5644,0.6371 1.1442,0.9306 1.7233,0.8727 1.0101,-0.1009 1.6817,-1.2501 1.6883,-1.2617l0.0052 -0.0088 0.0102 0.001c0.2366,0.0241 0.4116,0.1181 0.5201,0.2794 0.2305,0.3423 0.0898,0.8695 0.0667,0.949 0.276,0.2661 0.3999,1.7516 0.4094,1.8716 0.399,0.4166 0.5887,0.8173 0.5635,1.1906 -0.022,0.3264 -0.2057,0.6296 -0.5461,0.9011 -0.4095,0.3266 -0.9368,0.5065 -1.4849,0.5065z"/>
   <polygon id="_595863344" class="fil7" points="107.972,39.0606 93.8708,39.0674 89.1703,68.3908 103.272,85.1508 107.972,80.9608 96.8281,68.3908 "/>
   <polygon id="_595863152" class="fil7" points="99.6375,43.3831 107.972,39.0606 107.972,89.3409 103.272,89.47 "/>
   <path id="_595863296" class="fil6" d="M91.2888 50.8195l0.0993 -4.5771 -2.6724 -0.0579 -0.0993 4.5771c-0.4986,0.4628 -0.8278,1.182 -0.8454,1.9974 -0.031,1.4268 0.9011,2.6041 2.0819,2.6298 1.1807,0.0256 2.1629,-1.1102 2.1939,-2.537 0.0177,-0.8154 -0.28,-1.5482 -0.758,-2.0323z"/>
   <path id="_595864064" class="fil7" d="M103.961 6.1189c0,0 3.8361,-0.0083 2.403,-3.7047 -1.433,-3.6963 -4.1015,-2.0413 -4.1015,-2.0413 0,0 -1.1243,0.594 -0.8925,1.9191m2.591 3.8269l0 0 0 0z"/>
   <path id="_595863728" class="fil6" d="M104.345 7.8919c0,-2.834 -2.2975,-5.1314 -5.1314,-5.1314 -2.834,0 -5.1314,2.2974 -5.1314,5.1314 0,2.2984 1.5111,4.2436 3.594,4.8969l0.992 6.5558 5.057 -4.2141c0,0 -1.0924,-1.3916 -1.6784,-2.9606 1.3848,-0.919 2.2982,-2.4915 2.2982,-4.278z"/>
   <path id="_595863920" class="fil7" d="M101.679 12.2267c0,0 0.6814,-2.6126 -0.4328,-3.8139 -1.1117,-1.1986 -1.2553,0.6663 -1.2553,0.6663l-0.8021 -0.1743c0,0 0.1395,-1.8136 -1.43,-2.1275l1.0115 -2.1623c0,0 -3.8722,0.7519 -3.979,0.3768 -0.8397,-2.951 7.1718,-5.4718 9.3849,-0.9697 3.4421,7.0022 -2.4971,8.2046 -2.4971,8.2046l-0.0001 0z"/>
   <path id="_595864736" class="fil5" d="M97.1468 16.7981l0 0c-3.7254,0.728 -6.5217,3.8298 -6.8607,7.6105l-2.3189 25.8555 4.0692 0 5.1104 -33.466z"/>
   <path id="_595864280" class="fil5" d="M93.2992 37.3981l-0.6338 7.3004 17.2028 -5.0597 -2.0961 -5.2765 3.9032 -8.9628 -7.9677 -11.4203 -6.3607 0.4337 -2.4576 3.1803m-1.5901 19.8049z"/>
   <path id="_595864928" class="fil6" d="M107.328 44.3312l2.3994 -3.899 -2.2765 -1.401 -2.3994 3.8991c-0.6642,0.1473 -1.3118,0.6014 -1.7392,1.2961 -0.7479,1.2154 -0.5388,2.7024 0.467,3.3214 1.0059,0.619 2.4276,0.1355 3.1755,-1.0799 0.4275,-0.6946 0.5411,-1.4774 0.3732,-2.1366l0 -0.0001z"/>
   <path id="_595865312" class="fil5" d="M102.406 14.1238l1.3872 -0.0576 2.3715 1.7923c2.8101,0.4792 3.625,0.6135 4.486,2.4698 0.3618,0.78 0.6016,1.6109 0.7358,2.4602l2.0063 12.7065 -5.0429 12.1431 -3.3416 -3.7586 3.5723 -9.4938 -0.5934 -2.2709m-5.5812 -15.991l0 0 0 0z"/>
  </g>
 </g>
</svg>
